<svg id="Layer_1" data-name="Layer 1" xmlns="http://www.w3.org/2000/svg" viewBox="0 0 1416.56 472.9"><defs><style>.cls-1{fill:#fff;}</style></defs><title>Aodry- white</title><path class="cls-1" d="M189.84,200.79h0a35.43,35.43,0,0,1,35.43,35.43v35.43a0,0,0,0,1,0,0H189.84a35.43,35.43,0,0,1-35.43-35.43v0A35.43,35.43,0,0,1,189.84,200.79Z"/><path class="cls-1" d="M185.18,352a109.63,109.63,0,0,1-44.47-9,107.94,107.94,0,0,1-35.25-24.73A115,115,0,0,1,82.18,281.4a121.71,121.71,0,0,1-8.36-44.95A122.94,122.94,0,0,1,82.18,191a115,115,0,0,1,23.28-36.92,108.18,108.18,0,0,1,35.25-24.73,109.46,109.46,0,0,1,44.47-9c14.27,0,27,2.19,38,6.51a115.74,115.74,0,0,1,29.45,16.68l11.22,8.89v-26h42V346h-42V236.45c0-20.45-7.26-38.08-21.59-52.39s-31.94-21.59-52.39-21.59a74,74,0,0,0-52.4,21.59c-14.32,14.31-21.59,31.94-21.59,52.39,0,20.13,7.27,37.6,21.59,51.93a67.19,67.19,0,0,0,24,16.21,76.7,76.7,0,0,0,28.4,5.38A75.74,75.74,0,0,0,211,307.11l15.08,37.54C214.15,349.53,200.42,352,185.18,352Z"/><path class="cls-1" d="M477.64,352a114.43,114.43,0,0,1-45.25-9,115.8,115.8,0,0,1-61.78-61.78,113.17,113.17,0,0,1-9-44.78,114.31,114.31,0,0,1,9-45.24,115.78,115.78,0,0,1,61.78-61.79,118.35,118.35,0,0,1,90.49,0,115.8,115.8,0,0,1,61.78,61.78,114.68,114.68,0,0,1,9,45.25,113.45,113.45,0,0,1-9,44.78A115.8,115.8,0,0,1,522.88,343,114.45,114.45,0,0,1,477.64,352Zm0-189.53c-20.45,0-38.08,7.26-52.4,21.59S403.65,216,403.65,236.45c0,20.13,7.26,37.6,21.59,51.93a67.16,67.16,0,0,0,24,16.21A76.71,76.71,0,0,0,477.64,310a75,75,0,0,0,28.2-5.39A72.73,72.73,0,0,0,530,288.38c14.32-14.33,21.59-31.8,21.59-51.93,0-20.45-7.27-38.08-21.59-52.39C515,169.69,497.39,162.47,477.64,162.47Z"/><path class="cls-1" d="M746.8,352a109.67,109.67,0,0,1-44.48-9,108,108,0,0,1-35.24-24.73,114.86,114.86,0,0,1-23.28-36.9,126.29,126.29,0,0,1,0-90.37,114.89,114.89,0,0,1,23.28-36.92,108,108,0,0,1,35.25-24.73,109.63,109.63,0,0,1,44.47-9c14,0,26.58,2.19,37.51,6.51a115.68,115.68,0,0,1,29.44,16.68L825,152.51V33.35h42V346H825V236.45c0-20.79-7.29-38.43-21.65-52.46-14.27-14.26-31.74-21.52-51.87-21.52-20.45,0-38.08,7.26-52.4,21.59S677.47,216,677.47,236.45c0,20.13,7.26,37.6,21.58,51.93a67.1,67.1,0,0,0,24,16.21,76.66,76.66,0,0,0,28.4,5.38,73.63,73.63,0,0,0,20.72-2.85l15.09,37.53C775.35,349.53,761.77,352,746.8,352Z"/><path class="cls-1" d="M936.74,346V126.49h42v25.88l11.32-9.3A113.37,113.37,0,0,1,1018,126.41a84.91,84.91,0,0,1,27.87-6.23v42.1a71.21,71.21,0,0,0-45.47,21.31c-14.37,15-21.59,32.63-21.59,52.39V346Z"/><path class="cls-1" d="M1118.43,439.55l10.51-42h8.1a52.86,52.86,0,0,0,28.88-8.54,52.07,52.07,0,0,0,19.82-23.05l6-13.08L1086.88,127h46.2l81.73,176.25L1296.54,127h46.19L1239.26,350l-14.46,31.71a98.83,98.83,0,0,1-90.55,57.88Z"/></svg>