<?xml version="1.0" encoding="UTF-8"?>
<!DOCTYPE svg PUBLIC "-//W3C//DTD SVG 1.1//EN" "http://www.w3.org/Graphics/SVG/1.1/DTD/svg11.dtd">
<!-- Creator: CorelDRAW 2017 -->
<svg xmlns="http://www.w3.org/2000/svg" xml:space="preserve" width="1.5748in" height="1.5748in" version="1.1" style="shape-rendering:geometricPrecision; text-rendering:geometricPrecision; image-rendering:optimizeQuality; fill-rule:evenodd; clip-rule:evenodd"
viewBox="0 0 1575 1575"
 xmlns:xlink="http://www.w3.org/1999/xlink">
 <defs>
  <style type="text/css">
   <![CDATA[
    .fil0 {fill:#FEFEFE}
   ]]>
  </style>
 </defs>
 <g id="Layer_x0020_1">
  <metadata id="CorelCorpID_0Corel-Layer"/>
  <g id="_646847080">
   <path class="fil0" d="M815 310c36,-29 116,-48 153,-75 4,-54 -29,-40 -61,-24l-232 106c-4,43 8,37 38,63 20,17 41,32 60,48 41,36 90,87 126,73 4,-30 -7,-39 -26,-55l-114 -92c-24,-23 -11,-14 -8,-19 23,-7 -3,4 25,19 13,7 76,4 128,18 321,84 468,446 293,729 -235,380 -848,259 -894,-209 -3,-26 5,-72 -27,-72 -33,0 -24,50 -22,77 21,220 171,380 338,444 308,119 635,-59 714,-379 73,-299 -141,-630 -493,-652z"/>
   <path class="fil0" d="M787 757l253 -1c0,47 13,218 -14,242 -22,19 -195,12 -238,10 -47,2 -218,13 -241,-13 -20,-22 -11,-198 -11,-239l252 1zm0 -91c49,-1 99,0 148,0 58,0 96,-13 104,42l-252 -1 -252 1c8,-56 46,-43 103,-43 49,0 100,-1 148,1zm-298 322c7,33 33,59 67,67 26,6 342,2 385,2 72,0 147,7 147,-112 0,-60 7,-208 -2,-258 -6,-33 -34,-61 -67,-69 -29,-6 -341,-3 -386,-3 -98,0 -147,9 -147,114 0,58 -7,211 3,259z"/>
   <path class="fil0" d="M616 859c23,3 51,4 77,3 37,-1 42,-10 34,-43 -39,-8 -138,-25 -111,40z"/>
   <path class="fil0" d="M614 953c33,4 63,10 88,-7l1 -28c-22,-13 -22,-11 -54,-11 -42,0 -48,10 -35,45z"/>
  </g>
 </g>
</svg>
