<?xml version="1.0" encoding="UTF-8"?>
<!DOCTYPE svg PUBLIC "-//W3C//DTD SVG 1.1//EN" "http://www.w3.org/Graphics/SVG/1.1/DTD/svg11.dtd">
<!-- Creator: CorelDRAW 2017 -->
<svg xmlns="http://www.w3.org/2000/svg" xml:space="preserve" width="1.5748in" height="1.5748in" version="1.1" style="shape-rendering:geometricPrecision; text-rendering:geometricPrecision; image-rendering:optimizeQuality; fill-rule:evenodd; clip-rule:evenodd"
viewBox="0 0 1575 1575"
 xmlns:xlink="http://www.w3.org/1999/xlink">
 <defs>
  <style type="text/css">
   <![CDATA[
    .fil0 {fill:#FEFEFE}
   ]]>
  </style>
 </defs>
 <g id="Layer_x0020_1">
  <metadata id="CorelCorpID_0Corel-Layer"/>
  <path class="fil0" d="M1169 706c-36,-30 -33,-45 -74,-79l-2 801 172 -2 1 -950c-16,38 -77,201 -97,230z"/>
  <path class="fil0" d="M930 277c14,22 23,35 38,52 30,36 22,10 36,60 -63,31 -604,490 -708,573 19,30 17,36 51,64l356 -285c43,-32 328,-278 362,-290 44,38 32,50 76,85 27,-30 115,-282 123,-313l-333 53z"/>
  <path class="fil0" d="M837 1428l170 -1 0 -821c-24,9 -112,85 -139,107 -50,41 -33,118 -33,217 0,164 -5,336 1,499z"/>
  <path class="fil0" d="M577 973l0 413 1 40 171 3 1 -613c-35,24 -173,123 -173,157z"/>
  <path class="fil0" d="M319 1168l1 260 172 0 2 -399 -151 114c-20,18 -9,-4 -23,25z"/>
 </g>
</svg>
