<?xml version="1.0" encoding="UTF-8"?>
<!DOCTYPE svg PUBLIC "-//W3C//DTD SVG 1.1//EN" "http://www.w3.org/Graphics/SVG/1.1/DTD/svg11.dtd">
<!-- Creator: CorelDRAW 2017 -->
<svg xmlns="http://www.w3.org/2000/svg" xml:space="preserve" width="1.5748in" height="1.5748in" version="1.1" style="shape-rendering:geometricPrecision; text-rendering:geometricPrecision; image-rendering:optimizeQuality; fill-rule:evenodd; clip-rule:evenodd"
viewBox="0 0 1575 1575"
 xmlns:xlink="http://www.w3.org/1999/xlink">
 <defs>
  <style type="text/css">
   <![CDATA[
    .fil0 {fill:#FEFEFE}
   ]]>
  </style>
 </defs>
 <g id="Layer_x0020_1">
  <metadata id="CorelCorpID_0Corel-Layer"/>
  <path class="fil0" d="M892 1275l-491 0 0 -295 749 0c0,25 4,271 -3,283 -11,19 -59,12 -84,12 -20,-90 -150,-90 -171,0zm-559 -451c-100,27 -92,-38 -78,-56 14,-17 37,-21 56,-4 29,27 22,27 22,60zm-10 50c-12,22 -43,49 -52,68 9,10 23,20 34,28 13,-10 19,-24 31,-35 26,33 20,33 20,67l0 272c-17,0 -179,2 -188,-1 -19,-6 -15,-29 -15,-49l0 -511c0,-87 -26,-73 181,-74l0 82c-59,-35 -125,1 -132,61 -4,35 13,64 31,78 29,23 51,18 91,14zm334 -397c7,-17 27,-40 41,-53 56,-51 100,54 38,64 -20,4 -64,-3 -79,-12zm-75 2c-21,4 -59,16 -83,9 -21,-6 -34,-34 -19,-58 33,-54 94,25 102,49zm14 455c-45,0 -89,0 -134,0 -80,0 -83,8 -82,-51l0 -534c0,-22 -3,-45 18,-50l199 -1 -1 116c-23,-17 -32,-47 -79,-47 -79,-1 -113,90 -65,144 25,28 54,27 100,23 -10,19 -41,50 -52,69 7,9 24,22 34,28 18,-15 45,-59 63,-74l0 378zm184 -412c6,-6 12,-11 18,-17 6,-6 8,-12 14,-18 8,-31 15,-43 0,-76 -9,-19 -26,-35 -48,-43 -46,-17 -81,7 -111,37 -6,6 -4,7 -11,12l0 -120 514 0c22,89 153,89 175,0 26,0 82,-9 92,14 5,11 2,279 2,304 0,69 0,138 0,207 0,128 14,111 -94,111 -23,-89 -153,-89 -175,0l-513 -1 0 -376c8,6 23,26 30,36 10,12 21,28 31,36 11,-9 23,-17 34,-27 -4,-8 -19,-25 -26,-34 -10,-13 -19,-21 -26,-35 52,2 49,8 95,-11zm-446 -207l0 278 -165 0c-31,0 -62,31 -62,62l0 602c0,31 31,62 62,62l766 0c0,-24 0,-68 43,-68 43,0 43,44 43,68l114 0c20,0 41,-14 50,-27 15,-22 13,-29 13,-64 0,-51 0,-102 0,-153 0,-42 -8,-119 8,-145 17,-28 82,-30 82,34l0 14 119 0c31,0 62,-31 62,-62l0 -602c0,-31 -31,-62 -62,-62l-119 0c0,31 -4,68 -45,68 -41,0 -45,-36 -45,-68l-801 0c-31,0 -62,31 -62,62z"/>
  <polygon class="fil0" points="469,1231 879,1231 879,1185 469,1185 "/>
  <polygon class="fil0" points="697,890 708,890 1105,890 1105,875 1105,861 1105,844 1091,844 1077,844 697,844 "/>
  <path class="fil0" d="M885 601l32 32 125 -124c41,-41 87,-83 125,-125l-32 -32 -250 250z"/>
  <path class="fil0" d="M940 391c28,-9 40,34 13,43 -28,9 -43,-33 -13,-43zm-8 -45c-91,24 -55,154 30,133 89,-21 54,-155 -30,-133z"/>
  <path class="fil0" d="M1099 550c28,-9 40,34 13,43 -28,9 -43,-33 -13,-43zm-8 -45c-91,23 -55,154 30,133 31,-7 61,-41 51,-82 -7,-31 -41,-61 -81,-51z"/>
  <polygon class="fil0" points="469,1140 742,1140 742,1094 469,1094 "/>
  <polygon class="fil0" points="697,779 697,799 969,799 969,753 697,753 "/>
  <polygon class="fil0" points="469,1049 606,1049 606,1003 469,1003 "/>
  <polygon class="fil0" points="697,708 833,708 833,694 833,680 833,663 819,663 804,663 697,663 "/>
  <polygon class="fil0" points="991,1162 1038,1162 1038,1116 991,1116 "/>
  <polygon class="fil0" points="991,1072 1038,1072 1038,1026 991,1026 "/>
  <polygon class="fil0" points="1219,821 1230,821 1264,821 1264,776 1253,776 1219,776 "/>
  <polygon class="fil0" points="1219,640 1264,640 1264,611 1264,603 1264,594 1227,594 1219,594 "/>
  <polygon class="fil0" points="1219,532 1219,540 1219,549 1256,549 1264,549 1264,504 1219,504 "/>
  <polygon class="fil0" points="1219,427 1219,458 1264,458 1264,413 1219,413 "/>
  <polygon class="fil0" points="1219,711 1219,731 1264,731 1264,685 1219,685 "/>
  <path class="fil0" d="M779 523l89 -33 -58 -2c-5,6 -8,11 -14,18 -5,6 -12,11 -18,17z"/>
 </g>
</svg>
