<?xml version="1.0" encoding="UTF-8"?>
<!DOCTYPE svg PUBLIC "-//W3C//DTD SVG 1.1//EN" "http://www.w3.org/Graphics/SVG/1.1/DTD/svg11.dtd">
<!-- Creator: CorelDRAW 2017 -->
<svg xmlns="http://www.w3.org/2000/svg" xml:space="preserve" width="1.5748in" height="1.5748in" version="1.1" style="shape-rendering:geometricPrecision; text-rendering:geometricPrecision; image-rendering:optimizeQuality; fill-rule:evenodd; clip-rule:evenodd"
viewBox="0 0 1575 1575"
 xmlns:xlink="http://www.w3.org/1999/xlink">
 <defs>
  <style type="text/css">
   <![CDATA[
    .fil0 {fill:#FEFEFE}
   ]]>
  </style>
 </defs>
 <g id="Layer_x0020_1">
  <metadata id="CorelCorpID_0Corel-Layer"/>
  <path class="fil0" d="M844 699c27,7 75,21 86,46 16,36 10,61 -14,89 -25,-12 -78,-77 -72,-134zm-1 -167c58,8 169,28 217,51 55,26 72,107 93,175 36,114 43,187 104,294 17,31 38,55 53,83 -27,90 -154,177 -271,179 -9,-17 -16,-27 -28,-44l-121 -103c-29,-18 -73,-42 -91,-60 -19,-20 -45,-58 -55,-96 -11,-44 -6,-79 -22,-129 -12,-38 -30,-73 -48,-104 -23,-40 -119,-160 -38,-211 57,6 111,88 135,141 24,51 65,134 108,166 45,33 61,21 84,-11 51,-69 29,-89 12,-147 -8,-29 -6,-24 -33,-35 -30,-12 -71,-31 -101,-38l0 -111zm-443 572c-146,8 -134,-2 -134,-137l0 -549c0,-144 -23,-153 125,-153 17,4 9,7 25,38 19,36 61,65 109,67 88,3 110,-66 134,-103 174,-13 125,0 132,362 -6,-4 -25,-27 -33,-36 -141,-162 -245,-37 -183,116 29,71 68,103 96,184 31,88 5,121 59,212l-70 0c-19,-30 -19,-49 -45,-71 -19,-16 -49,-32 -84,-33 -70,-1 -110,49 -131,104zm44 49c15,-51 14,-99 82,-101 82,-2 78,72 88,99 41,12 99,6 145,3 23,-1 170,110 183,122 30,28 45,51 68,88 66,9 129,-13 181,-39 73,-36 125,-89 164,-162 35,-65 -42,-76 -93,-224 -37,-108 -60,-232 -107,-329 -29,-60 -57,-72 -126,-92 -53,-16 -129,-33 -185,-39 -2,-73 16,-175 -24,-227 -39,-52 -180,-51 -203,-27 -16,13 -10,50 -33,72 -21,20 -53,27 -87,14 -31,-11 -39,-27 -46,-64 -9,-45 -31,-34 -77,-34 -191,1 -160,81 -160,283 0,115 -6,461 0,559 7,110 142,117 229,98z"/>
  <path class="fil0" d="M812 855c24,-27 30,-53 14,-89 -11,-25 -60,-39 -86,-46 -5,58 48,122 72,134z"/>
 </g>
</svg>
