<?xml version="1.0" encoding="UTF-8"?>
<!DOCTYPE svg PUBLIC "-//W3C//DTD SVG 1.1//EN" "http://www.w3.org/Graphics/SVG/1.1/DTD/svg11.dtd">
<!-- Creator: CorelDRAW 2017 -->
<svg xmlns="http://www.w3.org/2000/svg" xml:space="preserve" width="1.5748in" height="1.5748in" version="1.1" style="shape-rendering:geometricPrecision; text-rendering:geometricPrecision; image-rendering:optimizeQuality; fill-rule:evenodd; clip-rule:evenodd"
viewBox="0 0 1575 1575"
 xmlns:xlink="http://www.w3.org/1999/xlink">
 <defs>
  <style type="text/css">
   <![CDATA[
    .fil0 {fill:#FEFEFE}
   ]]>
  </style>
 </defs>
 <g id="Layer_x0020_1">
  <metadata id="CorelCorpID_0Corel-Layer"/>
  <g id="_643984360">
   <path class="fil0" d="M384 825c9,-59 59,-108 126,-108 66,0 119,50 125,109 18,34 -17,148 -125,148 -41,0 -80,-22 -98,-43 -17,-21 -43,-72 -28,-106zm150 -146c-11,-70 -4,-258 -3,-338 2,-103 86,-77 259,-77 110,0 229,-4 338,0 62,2 67,38 66,95l0 677c0,65 -17,85 -83,85 -113,0 -226,0 -338,0 -202,0 -242,26 -242,-105 138,-16 193,-183 104,-279 -32,-35 -49,-38 -102,-57zm-43 375l7 36c12,50 48,69 108,70 102,1 500,7 548,-2 107,-20 80,-163 80,-290 0,-122 0,-245 0,-367 0,-118 31,-267 -95,-278l-551 0c-55,4 -92,38 -97,90 -10,100 -1,259 -1,366 -209,48 -197,299 0,338l0 38z"/>
   <path class="fil0" d="M498 1091l-7 -36c-41,-2 -74,-21 -96,-43 -38,-35 -31,-44 -56,-88 -2,66 -8,143 23,196 25,43 63,72 128,84 5,47 -3,79 26,111 23,25 57,33 102,33 92,0 184,0 275,0 286,0 359,45 340,-211 -18,17 -28,44 -61,57 -35,14 -497,8 -566,7 -57,-1 -91,-17 -108,-63 -6,-17 -9,-34 0,-47z"/>
   <path class="fil0" d="M745 463c-2,-32 -1,-49 18,-68l91 131 -24 4c-50,-3 -74,-22 -85,-66zm160 -34c10,22 3,51 -17,69 -9,-11 -20,-28 -28,-35l-8 -18 38 -50 15 35zm-107 -60l57 -4c-5,16 -5,24 -30,42l-27 -37zm8 -43c-164,30 -116,268 40,242 164,-28 116,-271 -40,-242z"/>
   <path class="fil0" d="M835 753c-41,45 98,32 122,32 45,0 116,10 152,-6 14,-39 -7,-36 -43,-35 -47,1 -217,-7 -231,8z"/>
   <path class="fil0" d="M833 1009c41,7 245,10 278,-3l0 -28c-25,-9 -192,-7 -240,-6 -33,0 -42,6 -38,38z"/>
   <path class="fil0" d="M833 664c12,20 123,11 152,11 98,0 137,14 124,-34 -26,-14 -117,-7 -153,-7 -54,0 -149,-13 -123,29z"/>
   <path class="fil0" d="M831 892c26,14 253,14 280,3l1 -29c-28,-11 -182,-5 -236,-6 -35,0 -47,-5 -45,32z"/>
   <path class="fil0" d="M449 829l-13 15c9,22 10,20 24,35 38,38 35,26 88,-26 18,-18 47,-31 26,-61 -33,15 -48,55 -80,70 -25,-9 -26,-22 -46,-33z"/>
   <path class="fil0" d="M797 761c-5,-20 -29,-16 -53,-16 -20,1 -44,2 -39,26 4,18 32,15 51,15 21,0 48,2 41,-26z"/>
   <path class="fil0" d="M797 876c-5,-20 -29,-16 -53,-15 -28,1 -36,-1 -39,26 12,15 -4,9 22,14 23,5 77,7 69,-25z"/>
   <path class="fil0" d="M708 1008c31,7 94,20 86,-29 -21,-11 -63,-10 -88,-4l2 33z"/>
   <path class="fil0" d="M793 642c-20,-13 -109,-17 -86,22 5,8 101,34 86,-22z"/>
  </g>
 </g>
</svg>
